
<svg xmlns="http://www.w3.org/2000/svg" width="512" height="512" shape-rendering="geometricPrecision" text-rendering="geometricPrecision" image-rendering="optimizeQuality" fill-rule="evenodd" clip-rule="evenodd"><path fill="#fefffe" d="M511.5 139.5v13a11435.342 11435.342 0 00-44.5 177c-1.297 7.298-5.464 12.131-12.5 14.5a6956.548 6956.548 0 01-165.5 1.5 7062.883 7062.883 0 01-166.5-1.5c-7.466-3.417-11.632-9.25-12.5-17.5l-55-256A1213.718 1213.718 0 0110.5 68c-5.274-2.437-8.94-6.27-11-11.5v-12c2.63-5.665 6.963-9.498 13-11.5a961.202 961.202 0 0162 0c7.577 1.912 12.077 6.746 13.5 14.5a6731.312 6731.312 0 0017 79 722.944 722.944 0 0053.5 1c7.948-51.108 35.615-86.942 83-107.5C302.321-.09 353.821 13.744 396 61.5c14.627 19.265 23.793 40.931 27.5 65 25.327.833 50.66 1.333 76 1.5 5.825 1.993 9.825 5.826 12 11.5zm-227-92c48.307.503 81.14 23.17 98.5 68 11.832 49.816-4.001 87.983-47.5 114.5-45.726 20.082-85.559 11.915-119.5-24.5-25.188-34.423-28.188-70.756-9-109 17.949-28.778 43.782-45.112 77.5-49zm-172 117c15.161-1.161 30.494-1.328 46-.5 11.683 59.017 46.683 96.017 105 111 52.593 8.695 96.426-6.805 131.5-46.5 15.201-19.075 24.368-40.741 27.5-65h47a22938.111 22938.111 0 00-35 145h-291a4588.884 4588.884 0 00-31-144z" opacity=".972"/><path fill="#fefffe" d="M284.5 88.5c12.371-2.404 20.538 2.262 24.5 14 .5 7.659.666 15.326.5 23 8.403-.37 16.736.13 25 1.5 12.295 6.56 15.129 16.06 8.5 28.5a25.55 25.55 0 01-6.5 5.5 133.23 133.23 0 01-27 1.5 138.29 138.29 0 01-1.5 27c-7.018 11.445-16.518 13.945-28.5 7.5-2.606-1.938-4.439-4.438-5.5-7.5a133.23 133.23 0 01-1.5-27c-8.34.166-16.673 0-25-.5-12.752-6.255-15.918-15.755-9.5-28.5 3.165-4.166 7.332-6.666 12.5-7.5a242.43 242.43 0 0122-.5c-.166-8.007 0-16.007.5-24 2.273-5.77 6.106-10.103 11.5-13z" opacity=".966"/><path fill="#fefffe" d="M168.5 373.5c36.427-1.388 59.927 15.279 70.5 50 4.644 33.55-8.19 57.716-38.5 72.5-28.786 9.512-53.286 3.012-73.5-19.5-17.608-25.788-17.942-51.788-1-78 10.972-13.898 25.138-22.231 42.5-25zm3 37c18.72-.815 29.386 8.018 32 26.5-3.741 21.366-16.075 29.366-37 24-15.84-9.184-19.673-22.018-11.5-38.5 4.279-5.793 9.779-9.793 16.5-12zm198-37c38.263-1.547 62.096 16.12 71.5 53 3.155 30.194-8.345 52.694-34.5 67.5-29.014 11.858-54.514 6.692-76.5-15.5-18.447-25.134-19.781-51.134-4-78 10.986-14.739 25.486-23.739 43.5-27zm4 37c15.411-1.217 25.578 5.449 30.5 20 2.086 19.156-6.414 30.156-25.5 33-21.235-3.823-29.401-16.157-24.5-37 4.32-8.168 10.82-13.501 19.5-16z" opacity=".968"/></svg>